<?xml version="1.0" encoding="UTF-8" standalone="no"?>
<!-- Created with Inkscape (http://www.inkscape.org/) -->

<svg
   xmlns:dc="http://purl.org/dc/elements/1.1/"
   xmlns:cc="http://creativecommons.org/ns#"
   xmlns:rdf="http://www.w3.org/1999/02/22-rdf-syntax-ns#"
   xmlns:svg="http://www.w3.org/2000/svg"
   xmlns="http://www.w3.org/2000/svg"
   xmlns:sodipodi="http://sodipodi.sourceforge.net/DTD/sodipodi-0.dtd"
   xmlns:inkscape="http://www.inkscape.org/namespaces/inkscape"
   width="120"
   height="120"
   id="svg7710"
   version="1.1"
   inkscape:version="0.48.4 r9939"
   sodipodi:docname="New document 12">
  <defs
     id="defs7712" />
  <sodipodi:namedview
     id="base"
     pagecolor="#ffffff"
     bordercolor="#666666"
     borderopacity="1.0"
     inkscape:pageopacity="0.0"
     inkscape:pageshadow="2"
     inkscape:zoom="3.959798"
     inkscape:cx="94.025578"
     inkscape:cy="69.196136"
     inkscape:document-units="px"
     inkscape:current-layer="layer1"
     showgrid="false"
     inkscape:window-width="1280"
     inkscape:window-height="1002"
     inkscape:window-x="-8"
     inkscape:window-y="-8"
     inkscape:window-maximized="1" />
  <metadata
     id="metadata7715">
    <rdf:RDF>
      <cc:Work
         rdf:about="">
        <dc:format>image/svg+xml</dc:format>
        <dc:type
           rdf:resource="http://purl.org/dc/dcmitype/StillImage" />
        <dc:title></dc:title>
      </cc:Work>
    </rdf:RDF>
  </metadata>
  <g
     inkscape:label="Layer 1"
     inkscape:groupmode="layer"
     id="layer1"
     transform="translate(0,-932.36218)">
    <path
       style="fill:#666666;fill-opacity:0.57978725;fill-rule:nonzero;stroke:none"
       d="m 92.895305,939.5362 c -0.543036,0 -0.96875,0.45696 -0.96875,1 l 0,5 -35.875,0 0,-4.8125 c 0,-0.54304 -0.425714,-1 -0.96875,-1 l -5.625,0 c -0.543036,0 -0.96875,0.45696 -0.96875,1 l 0,48.84375 -28.78125,0 0,-45.03125 c 0,-0.54304 -0.456964,-0.96875 -1,-0.96875 l -3.625,0 -7.6874999,0 c -0.6004882,0 -1.09375,0.46201 -1.09375,1.0625 l 0,5.75 c 0,0.60048 0.4932618,1.09375 1.09375,1.09375 l 5.9999999,0 0,38.40625 c -0.159636,0.17424 -0.25,0.40022 -0.25,0.65625 l 0,5.21875 c 0,0.54303 0.425714,0.96875 0.96875,0.96875 l 34.375,0 0,37.4062 c 0,0.5431 0.425714,1 0.96875,1 l 5.625,0 c 0.543036,0 0.96875,-0.4569 0.96875,-1 l 0,-7.5312 13.15625,0 0,7.9062 c 0,0.5431 0.425714,1 0.96875,1 l 14.96875,0 c 0.543036,0 0.96875,-0.4569 0.96875,-1 l 0,-22.0937 c 0,-0.543 -0.425714,-0.9688 -0.96875,-0.9688 l -14.96875,0 c -0.543036,0 -0.96875,0.4258 -0.96875,0.9688 l 0,5.875 -13.15625,0 0,-21.5625 50.281255,0 0,46.5625 c 0,0.543 0.42571,1 0.96875,1 l 5.375,0 c 0.54304,0 0.96875,-0.457 0.96875,-1 l 0,-47.53125 0,-5.21875 c 0,-0.54304 -0.42571,-0.96875 -0.96875,-0.96875 l -14.437505,0 0,-49.03125 c 0,-0.54304 -0.425714,-1 -0.96875,-1 l -4.375,0 z m -36.84375,13.0625 35.875,0 0,36.96875 -35.875,0 0,-36.96875 z"
       id="rect7752"
       inkscape:connector-curvature="0" />
  </g>
</svg>
