<?xml version="1.0" encoding="UTF-8" standalone="no"?>
<!-- Created with Inkscape (http://www.inkscape.org/) -->

<svg
   xmlns:dc="http://purl.org/dc/elements/1.1/"
   xmlns:cc="http://creativecommons.org/ns#"
   xmlns:rdf="http://www.w3.org/1999/02/22-rdf-syntax-ns#"
   xmlns:svg="http://www.w3.org/2000/svg"
   xmlns="http://www.w3.org/2000/svg"
   xmlns:sodipodi="http://sodipodi.sourceforge.net/DTD/sodipodi-0.dtd"
   xmlns:inkscape="http://www.inkscape.org/namespaces/inkscape"
   width="15"
   height="15"
   id="svg3048"
   version="1.1"
   inkscape:version="0.48.4 r9939"
   sodipodi:docname="Independent.svg">
  <defs
     id="defs3050" />
  <sodipodi:namedview
     id="base"
     pagecolor="#ffffff"
     bordercolor="#666666"
     borderopacity="1.0"
     inkscape:pageopacity="0.0"
     inkscape:pageshadow="2"
     inkscape:zoom="11.2"
     inkscape:cx="8.4413845"
     inkscape:cy="17.174584"
     inkscape:document-units="px"
     inkscape:current-layer="layer1"
     showgrid="false"
     inkscape:window-width="1280"
     inkscape:window-height="1002"
     inkscape:window-x="-8"
     inkscape:window-y="-8"
     inkscape:window-maximized="1"
     units="px" />
  <metadata
     id="metadata3053">
    <rdf:RDF>
      <cc:Work
         rdf:about="">
        <dc:format>image/svg+xml</dc:format>
        <dc:type
           rdf:resource="http://purl.org/dc/dcmitype/StillImage" />
        <dc:title></dc:title>
      </cc:Work>
    </rdf:RDF>
  </metadata>
  <g
     inkscape:label="Layer 1"
     inkscape:groupmode="layer"
     id="layer1"
     transform="translate(0,-1037.3622)">
    <rect
       style="fill:#e54d1a;fill-opacity:0.84042555;fill-rule:nonzero;stroke:none"
       id="rect3061"
       width="15"
       height="15"
       x="0.17857167"
       y="1037.4519"
       ry="0.83169329" />
    <path
       style="fill:#008000;fill-opacity:0.81382979;fill-rule:nonzero;stroke:none"
       d="m -21.551203,1033.9799 c -0.565458,-0.2807 -0.531874,0.2283 -0.558397,-8.4633 -0.01658,-5.4337 0.0059,-8.0418 0.0715,-8.2853 0.06645,-0.2468 0.183017,-0.4086 0.381342,-0.5296 0.277805,-0.1694 0.512976,-0.1741 8.57276,-0.1745 5.9282979,-2e-4 8.3426299,0.028 8.4821429,0.099 0.107263,0.055 0.264442,0.1855 0.349288,0.2902 0.143625,0.1773 0.154401,0.7554 0.15625,8.381 l 0.002,8.1906 -0.260516,0.2916 -0.260515,0.2915 -8.3332349,0.021 c -7.25087,0.018 -8.368221,0 -8.602607,-0.1127 l 0,0 z m 13.3178169,-2.9429 c 0.522529,-0.1551 1.380653,-0.6898 1.951163,-1.2157 l 0.402179,-0.3707 0,-2.1315 0,-2.1315 -1.785714,0 -1.785715,0 0,0.6697 0,0.6696 1.205357,0 1.205358,0 0,1.0649 0,1.065 -0.334822,0.2775 c -0.184152,0.1527 -0.555803,0.3866 -0.825893,0.5199 -0.410616,0.2026 -0.608098,0.2423 -1.205357,0.242 -0.6240939,-4e-4 -0.7746639,-0.034 -1.1924599,-0.2649 -1.135867,-0.6282 -1.709326,-2.007 -1.709326,-4.1098 0,-1.607 0.390191,-2.9604 1.079943,-3.746 0.833146,-0.9489 2.4691509,-1.0339 3.3302019,-0.173 0.305875,0.3058 0.657763,1.0166 0.735674,1.486 0.03057,0.1842 0.08526,0.3348 0.121544,0.3348 0.03628,0 0.272218,-0.086 0.524303,-0.1904 0.528976,-0.2199 0.536175,-0.2495 0.271925,-1.1171 -0.239554,-0.7866 -0.514918,-1.2579 -0.98097,-1.6789 -1.304168,-1.1783 -3.4343769,-1.081 -4.7313589,0.216 -1.103416,1.1034 -1.758966,3.6149 -1.519091,5.8199 0.289217,2.6585 1.287204,4.2009 3.087472,4.7718 0.4926469,0.1562 1.6174339,0.1522 2.1555869,-0.01 l 0,0 z m -10.7716579,-2.5905 0,-2.5446 1.919643,0 1.919643,0 0,-0.7143 0,-0.7143 -1.919643,0 -1.919643,0 0,-1.741 0,-1.7411 2.235898,0 2.235899,0 -0.02608,-0.692 -0.02608,-0.6919 -2.790179,-0.024 -2.790178,-0.024 0,5.7155 0,5.7156 0.580357,0 0.580357,0 0,-2.5447 z"
       id="path3835"
       inkscape:connector-curvature="0" />
    <text
       xml:space="preserve"
       style="font-size:14.38656139px;font-style:normal;font-weight:normal;line-height:239.00001049%;letter-spacing:0px;word-spacing:0px;fill:#ffffff;fill-opacity:1;stroke:none;font-family:Sans"
       x="1.9324596"
       y="1037.7759"
       id="text3837"
       sodipodi:linespacing="239.00001%"
       transform="scale(0.98815379,1.0119882)"><tspan
         sodipodi:role="line"
         id="tspan3839"
         x="1.9324596"
         y="1037.7759">O</tspan></text>
    <path
       style="fill:#550000;fill-opacity:0.81382979;fill-rule:nonzero;stroke:none"
       d="m 5.6601345,4.2765003 c 0.7243303,-0.015008 1.9095982,-0.015008 2.6339285,0 0.7243304,0.015007 0.1316965,0.027286 -1.3169642,0.027286 -1.4486608,0 -2.0412947,-0.012279 -1.3169643,-0.027286 z"
       id="path3877"
       inkscape:connector-curvature="0"
       transform="translate(0,1032.3622)" />
  </g>
</svg>
